<svg width="189" height="184" xmlns="http://www.w3.org/2000/svg" xmlns:xlink="http://www.w3.org/1999/xlink" overflow="hidden"><defs><clipPath id="clip0"><rect x="327" y="483" width="189" height="184"/></clipPath><linearGradient x1="59.1599" y1="25.1984" x2="131.801" y2="25.1984" gradientUnits="userSpaceOnUse" spreadMethod="pad" id="fill1"><stop offset="0" stop-color="#EC008C"/><stop offset="0.1185" stop-color="#EC008C"/><stop offset="0.2408" stop-color="#DA098C"/><stop offset="0.4955" stop-color="#B31E8E"/><stop offset="0.8579" stop-color="#772B90"/><stop offset="1" stop-color="#5C2D91"/></linearGradient><linearGradient x1="72.7515" y1="35.2848" x2="118.503" y2="35.2848" gradientUnits="userSpaceOnUse" spreadMethod="pad" id="fill2"><stop offset="0" stop-color="#FFDD00"/><stop offset="0.423" stop-color="#B6CB34"/><stop offset="0.7327" stop-color="#7FBF42"/><stop offset="0.8815" stop-color="#65BC46"/><stop offset="1" stop-color="#65BC46"/></linearGradient></defs><g clip-path="url(#clip0)" transform="translate(-327 -483)"><path d="M16.6765 130.5C18.2647 131.294 19.5882 132.882 20.1176 134.735 20.9118 136.588 21.1765 139.235 21.1765 142.676 21.1765 146.118 20.9118 149.029 20.1176 151.147 19.5882 153.265 18.2647 154.853 16.6765 155.647 15.0882 156.706 12.4412 157.235 9.26471 157.235L0 157.235 0 129.176 9.52941 129.176C12.7059 129.176 15.0882 129.706 16.6765 130.5ZM13.5 151.147C14.2941 150.353 14.8235 149.294 15.0882 147.971 15.3529 146.647 15.3529 144.794 15.3529 142.147 15.3529 140.029 15.0882 138.176 14.8235 137.118 14.8235 136.324 14.2941 135.529 13.2353 135 12.4412 134.471 11.1176 134.206 9.26471 134.206L5.55882 134.206 5.55882 152.206 9.26471 152.206C11.1176 152.206 12.4412 151.941 13.5 151.147Z" fill="#0072BC" transform="matrix(1 0 0 1.00176 327 484.178)"/><path d="M26.2059 129.176 31.7647 129.176 31.7647 157.235 26.2059 157.235 26.2059 129.176Z" fill="#0072BC" transform="matrix(1 0 0 1.00176 327 484.178)"/><path d="M41.2941 156.176C39.7059 155.118 38.3824 153.529 37.8529 151.412 37.3235 149.294 36.7941 146.382 36.7941 142.941 36.7941 139.5 37.0588 136.853 37.8529 134.735 38.6471 132.618 39.7059 131.029 41.2941 130.235 42.8824 129.176 45 128.647 47.9118 128.647 50.5588 128.647 53.2059 128.912 56.1176 129.441L57.7059 129.706 57.4412 134.206C54.2647 133.941 51.6176 133.676 49.5 133.676 47.3824 133.676 45.7941 133.941 44.7353 134.735 43.6765 135.529 43.1471 136.324 42.8824 137.647 42.6176 138.971 42.6176 140.824 42.6176 143.206 42.6176 145.588 42.8824 147.441 43.1471 148.765 43.4118 150.088 43.9412 151.147 45 151.676 45.7941 152.206 47.1176 152.471 48.9706 152.471 50.5588 152.471 51.6176 152.471 52.4118 152.206L52.4118 146.912 49.7647 146.912 49.7647 141.882 57.9706 141.882 57.9706 156.441C54 156.971 50.8235 157.5 48.4412 157.5 45.2647 157.765 43.1471 157.235 41.2941 156.176Z" fill="#0072BC" transform="matrix(1 0 0 1.00176 327 484.178)"/><path d="M63 129.176 68.8235 129.176 68.8235 157.235 63.2647 157.235 63.2647 129.176Z" fill="#0072BC" transform="matrix(1 0 0 1.00176 327 484.178)"/><path d="M79.6765 134.206 72.2647 134.206 72.2647 129.176 92.9118 129.176 92.9118 134.206 85.5 134.206 85.5 157.235 79.9412 157.235 79.9412 134.206Z" fill="#A8AAAD" transform="matrix(1 0 0 1.00176 327 484.178)"/><path d="M96.3529 129.176 107.206 129.176C113.824 129.176 117 132.353 117 138.441 117 142.147 115.676 144.794 112.765 146.382L116.735 156.971 110.647 156.971 107.471 147.706 101.912 147.706 101.912 156.971 96.3529 156.971 96.3529 129.176ZM107.471 142.941C108.794 142.941 109.853 142.412 110.382 141.618 111.176 140.824 111.441 139.765 111.441 138.441 111.441 137.118 111.176 136.059 110.382 135.265 109.588 134.471 108.794 134.206 107.471 134.206L102.176 134.206 102.176 142.941 107.471 142.941Z" fill="#A8AAAD" transform="matrix(1 0 0 1.00176 327 484.178)"/><path d="M135.794 152.206 126 152.206 124.941 157.235 119.118 157.235 125.471 129.176 136.324 129.176 142.676 157.235 137.118 157.235 135.794 152.206ZM131.824 133.941 129.971 133.941 127.059 147.176 134.735 147.176 131.824 133.941Z" fill="#A8AAAD" transform="matrix(1 0 0 1.00176 327 484.178)"/><path d="M149.029 156.176C147.441 155.118 146.382 153.529 145.853 151.676 145.324 149.559 145.059 146.912 145.059 143.471 145.059 139.765 145.324 136.853 146.118 134.735 146.647 132.618 147.706 131.029 149.294 130.235 150.882 129.441 153 128.912 155.647 128.912 158.029 128.912 160.941 129.176 164.118 129.971L163.853 134.471C161.206 133.941 158.824 133.941 157.235 133.941 155.382 133.941 154.324 134.206 153.265 134.735 152.206 135.265 151.676 136.059 151.412 137.382 151.147 138.706 150.882 140.294 150.882 142.676L150.882 144.265C150.882 146.647 151.147 148.5 151.412 149.559 151.676 150.618 152.206 151.676 153 152.206 153.794 152.735 155.118 153 156.971 153 158.824 153 161.206 152.735 163.588 152.471L163.588 157.235C160.676 157.765 158.029 158.294 155.647 158.294 152.735 157.765 150.618 157.235 149.029 156.176Z" fill="#A8AAAD" transform="matrix(1 0 0 1.00176 327 484.178)"/><path d="M177.618 145.853 173.912 146.118 173.912 156.971 168.353 156.971 168.353 129.176 173.912 129.176 173.912 141.353 177.618 141.088 182.118 129.176 188.471 129.176 182.647 143.206 189 157.235 182.382 157.235 177.618 145.853Z" fill="#A8AAAD" transform="matrix(1 0 0 1.00176 327 484.178)"/><path d="M65.9118 57.4412 95.0294 118.324 125.206 57.4412 118.059 52.4118C118.059 52.4118 111.176 64.8529 95.5588 64.8529 79.9412 64.8529 73.0588 52.4118 73.0588 52.4118L65.9118 57.4412Z" fill="#038FBE" transform="matrix(1 0 0 1.00176 327 484.178)"/><path d="M95.0294 118.324 125.206 57.4412 118.059 52.4118C118.059 52.4118 111.176 64.8529 95.5588 64.8529" fill="#0072BC" transform="matrix(1 0 0 1.00176 327 484.178)"/><path d="M67.5 35.4706C67.5 19.5882 79.9412 7.67647 95.2941 7.67647 110.647 7.67647 123.088 19.5882 123.088 35.4706 123.088 38.9118 122.559 42.0882 121.5 45L128.647 50.2941C130.5 46.0588 131.559 41.2941 131.559 36.2647 131.824 16.1471 115.412 0 95.5588 0 75.7059 0 59.0294 16.1471 59.0294 36.2647 59.0294 41.2941 60.0882 46.0588 61.9412 50.2941L69.3529 45.2647C68.2941 42.3529 67.5 38.9118 67.5 35.4706Z" fill="url(#fill1)" transform="matrix(1 0 0 1.00176 327 484.178)"/><path d="M99.5294 12.7059 99.5294 17.7353C107.471 19.5882 113.559 26.7353 113.559 35.2059 113.559 45 105.618 53.2059 95.5588 53.2059 85.5 53.2059 77.5588 45.2647 77.5588 35.2059 77.5588 26.7353 83.3823 19.5882 91.3235 17.7353L91.3235 12.7059C80.7353 14.5588 72.5294 24.0882 72.5294 35.2059 72.5294 47.9118 82.8529 57.9706 95.2941 57.9706 107.735 57.9706 118.059 47.6471 118.059 35.2059 118.588 23.8235 110.382 14.2941 99.5294 12.7059Z" fill="url(#fill2)" transform="matrix(1 0 0 1.00176 327 484.178)"/><path d="M88.1471 32.8235 84.4412 32.8235 84.4412 30.4412 94.5 30.4412 94.5 32.8235 90.7941 32.8235 90.7941 44.2059 87.8824 44.2059 87.8824 32.8235Z" fill="#0072BC" transform="matrix(1 0 0 1.00176 327 484.178)"/><path d="M104.294 30.9706C105.088 31.5 105.618 32.0294 106.147 33.0882 106.412 34.1471 106.676 35.4706 106.676 37.0588 106.676 38.9118 106.412 40.2353 106.147 41.2941 105.882 42.3529 105.353 43.1471 104.294 43.4118 103.5 43.9412 102.176 44.2059 100.588 44.2059L96.0882 44.2059 96.0882 30.4412 100.588 30.4412C102.176 30.4412 103.5 30.7059 104.294 30.9706ZM102.706 41.2941C103.235 41.0294 103.5 40.5 103.5 39.7059 103.5 39.1765 103.765 38.1176 103.765 36.7941 103.765 35.7353 103.765 34.9412 103.5 34.4118 103.235 33.8824 102.971 33.3529 102.706 33.0882 102.176 32.8235 101.647 32.8235 100.853 32.8235L99 32.8235 99 41.8235 100.588 41.8235C101.647 41.8235 102.176 41.5588 102.706 41.2941Z" fill="#0072BC" transform="matrix(1 0 0 1.00176 327 484.178)"/><path d="M91.0588 21.1765 93.1765 21.1765C93.7059 21.1765 94.2353 21.1765 94.5 21.4412 94.7647 21.7059 95.0294 21.9706 95.0294 22.5 95.0294 22.7647 95.0294 23.0294 94.7647 23.2941 94.5 23.5588 94.5 23.8235 94.2353 24.0882 94.5 24.0882 94.7647 24.3529 95.0294 24.6176 95.2941 24.8824 95.2941 25.1471 95.2941 25.4118 95.2941 25.9412 95.0294 26.4706 94.7647 26.7353 94.5 27 93.9706 27 93.4412 27L91.3235 27 91.3235 21.1765ZM93.1765 23.8235C93.4412 23.8235 93.7059 23.8235 93.9706 23.5588 94.2353 23.2941 94.2353 23.0294 94.2353 22.7647 94.2353 22.5 94.2353 22.2353 93.9706 21.9706 93.7059 21.7059 93.4412 21.7059 93.1765 21.7059L91.8529 21.7059 91.8529 23.8235 93.1765 23.8235ZM93.4412 26.4706C93.7059 26.4706 94.2353 26.4706 94.2353 26.2059 94.5 25.9412 94.5 25.6765 94.5 25.4118 94.5 25.1471 94.5 24.6176 94.2353 24.6176 93.9706 24.6176 93.7059 24.3529 93.4412 24.3529L91.8529 24.3529 91.8529 26.4706 93.4412 26.4706Z" fill="#A8AAAD" transform="matrix(1 0 0 1.00176 327 484.178)"/><path d="M97.4118 24.6176 95.5588 21.1765 96.3529 21.1765 97.6765 23.8235 99 21.1765 99.7941 21.1765 97.9412 24.6176 97.9412 27 97.4118 27 97.4118 24.6176Z" fill="#A8AAAD" transform="matrix(1 0 0 1.00176 327 484.178)"/><path d="M180.265 180.265 8.73529 180.265C3.97059 180.265 0 176.294 0 171.529L0 169.941C0 165.176 3.97059 161.471 8.73529 161.471L180.265 161.471C185.029 161.471 189 165.441 189 170.206L189 171.794C189 176.559 185.029 180.265 180.265 180.265Z" fill="#0072BC" transform="matrix(1 0 0 1.00176 327 484.178)"/><text fill="#FFFFFF" font-family="Arial,Arial_MSFontService,sans-serif" font-weight="400" font-size="5" transform="matrix(2.64706 0 0 2.65173 332.725 660)">Votre production en <tspan font-size="5" x="46" y="0">1 </tspan>clin d'<tspan font-size="5" x="63" y="0">œil</tspan></text></g></svg>